<?xml version="1.0" encoding="UTF-8"?><svg xmlns="http://www.w3.org/2000/svg" viewBox="0 0 298.53 372.02"><defs><style>.h{fill:none;stroke-width:7px;}.h,.i,.j{stroke:#042642;stroke-miterlimit:10;}.i{stroke-width:3px;}.i,.j{fill:rgba(255,255,255,0);}.j{stroke-width:6.5px;}.k{fill:#0f143d;}.l{fill:#e49625;opacity:.6;}.m{fill:#10153d;}</style></defs><g id="a"/><g id="b"><g id="c"><ellipse id="d" class="l" cx="149.54" cy="162.41" rx="70.9" ry="86.45"/><path id="e" class="h" d="M174.64,279.4c0,7.24-5.87,13.11-13.11,13.11h-19.63c-7.24,0-13.11-5.87-13.11-13.11v-19.63c0-7.24,5.87-13.11,13.11-13.11h19.63c7.24,0,13.11,5.87,13.11,13.11v2.05"/><path id="f" class="j" d="M128.26,115.56s10-18.62,19.59-24.02c9.59-5.39,35.69,52.43,37.89,74.69,2.46,24.9-2.71,70.66-32.41,75.06h-8.77s-27.73-14.89-27.4-51.88"/><path id="g" class="i" d="M145.8,241.3l-15.61-39.72c-.1-.26-.13-.53-.06-.8,.57-2.52,3.82-15.78,7.79-12.37,4.38,3.76,6.79,9.02,5.59,13.53-.91,3.42-3.65,.8-4.92-.68-.44-.51-.51-1.12-.21-1.67,1.71-3.08,7.75-13.5,10.6-11.74,3.34,2.06,10.24,8.82,6.41,13.33-.04,.05-.08,.09-.11,.13-1.7,1.94-6.08,.67-5.22-1.51,1.84-4.67,5.7-13.26,8.81-12.15,3.83,1.36,6.08,9.42,6.49,11.01,.05,.18,.05,.36,.03,.54l-6.52,42.1"/><g><path class="k" d="M65.65,291.51c0-2.39-1.75-5.26-6.69-5.26H1.12v-11.95H61.34c10.04,0,14.1,7.25,14.1,16.41,0,5.58-2.39,10.75-4.3,13.3l-8.21-6.13c1.59-1.43,2.71-3.82,2.71-6.37Z"/><path class="k" d="M0,235.91c0-16.89,12.03-29.48,29-29.48s29.4,12.43,29.4,29.48-12.43,29.48-29.4,29.48S0,252.72,0,235.91Zm47.4,0c0-10.28-7.73-17.37-18.4-17.37s-18.4,6.93-18.4,17.37,7.73,17.45,18.4,17.45,18.4-7.09,18.4-17.45Z"/><path class="k" d="M48.44,178.71c0-4.62-2.55-7.73-6.53-7.73-5.18,0-6.85,3.98-9.72,11.55-1.99,5.5-6.13,14.82-16.73,14.82-9.48,0-15.46-8.05-15.46-18.4s6.21-16.81,12.03-19.68l4.94,8.92c-4.06,2.31-7.25,5.74-7.25,10.76,0,4.46,2.39,6.69,5.18,6.69,4.14,0,6.53-4.06,9.4-12.51,2.55-7.17,7.49-14.1,16.97-14.1,10.83,0,17.13,9.48,17.13,19.52s-6.61,18.72-14.5,22.31l-5.74-8.13c6.29-3.51,10.28-8.05,10.28-14.02Z"/><path class="k" d="M1.12,114.26H10.76v24.46h11.79v-22.86h9.48v22.86h15.22v-24.46h9.64v35.45H1.12v-35.45Z"/><path class="k" d="M1.12,85.03c0-13.15,6.77-20.87,17.77-20.87s17.77,7.73,17.77,20.87v6.61h20.24v11.39H1.12v-18Zm9.64,6.61H27.01v-6.61c0-5.98-2.79-9.8-8.13-9.8s-8.13,3.82-8.13,9.8v6.61Z"/><path class="k" d="M1.12,43.92H22.07V17.87H1.12V6.48H56.88v11.39h-24.54v26.05h24.54v11.39H1.12v-11.39Z"/></g><g><path class="k" d="M233.57,83.48c0,2.37,1.73,5.2,6.62,5.2h57.24v11.83h-59.6c-9.93,0-13.96-7.17-13.96-16.24,0-5.52,2.37-10.64,4.26-13.17l8.12,6.07c-1.58,1.42-2.68,3.79-2.68,6.31Z"/><path class="k" d="M298.53,138.51c0,16.71-11.91,29.17-28.7,29.17s-29.09-12.3-29.09-29.17,12.3-29.17,29.09-29.17,28.7,12.54,28.7,29.17Zm-46.91,0c0,10.17,7.65,17.19,18.21,17.19s18.21-6.86,18.21-17.19-7.65-17.27-18.21-17.27-18.21,7.02-18.21,17.27Z"/><path class="k" d="M250.6,195.12c0,4.57,2.52,7.65,6.46,7.65,5.12,0,6.78-3.94,9.62-11.43,1.97-5.44,6.07-14.66,16.56-14.66,9.38,0,15.3,7.96,15.3,18.21s-6.15,16.64-11.91,19.47l-4.89-8.83c4.02-2.29,7.17-5.68,7.17-10.64,0-4.42-2.37-6.62-5.12-6.62-4.1,0-6.46,4.02-9.3,12.38-2.52,7.1-7.41,13.96-16.79,13.96-10.72,0-16.95-9.38-16.95-19.32s6.54-18.53,14.35-22.08l5.68,8.04c-6.23,3.47-10.17,7.96-10.17,13.88Z"/><path class="k" d="M297.43,258.91h-9.54v-24.2h-11.67v22.63h-9.38v-22.63h-15.06v24.2h-9.54v-35.08h55.19v35.08Z"/><path class="k" d="M297.43,287.85c0,13.01-6.7,20.66-17.58,20.66s-17.58-7.65-17.58-20.66v-6.54h-20.03v-11.27h55.19v17.82Zm-9.54-6.54h-16.08v6.54c0,5.91,2.76,9.7,8.04,9.7s8.04-3.78,8.04-9.7v-6.54Z"/><path class="k" d="M297.43,328.53h-20.74v25.78h20.74v11.27h-55.19v-11.27h24.28v-25.78h-24.28v-11.27h55.19v11.27Z"/></g><g><path class="k" d="M204.17,312.83c-7.99,0-14.54,2.98-19.98,7.57l.68-3.74c5.53-4.17,11.56-6.72,19.64-6.63,16.58,.08,24.92,14.63,22.62,30.44-2.55,16.67-15.99,30.44-32.82,30.53-7.57,0-12.84-2.21-17.6-6.72l.6-3.74c4.17,5.1,10.03,7.57,17.26,7.57,15.14-.08,27.21-12.5,29.59-27.64,2.13-14.12-5.02-27.47-19.98-27.64Z"/><path class="k" d="M159.43,370.23l4.42-25.77h-35.21l-4.42,25.77h-2.81l10.29-59.53h2.72l-5.36,31.12h35.21l5.36-31.12h2.72l-10.2,59.53h-2.72Z"/><path class="k" d="M82.22,332.3h26.11l12.16-21.6h3.15l-35.12,61.31-13.95-61.31h2.98l4.68,21.6Zm24.66,2.55h-24.15l6.8,30.7,17.35-30.7Z"/><path class="k" d="M10.62,370.23l10.54-61.31,34.35,55.53,9.27-53.74h2.81l-10.54,61.31-34.35-55.87-9.35,54.08h-2.72Z"/></g><g><path class="m" d="M95.88,57.75c7.8,0,14.19-2.9,19.5-7.38l-.66,3.65c-5.39,4.07-11.28,6.56-19.17,6.47-16.18-.08-24.31-14.27-22.07-29.71C75.96,14.52,89.07,1.08,105.5,1c7.38,0,12.53,2.16,17.18,6.56l-.58,3.65c-4.07-4.98-9.79-7.39-16.84-7.39-14.77,.08-26.55,12.2-28.88,26.97-2.07,13.77,4.9,26.8,19.5,26.97Z"/><path class="m" d="M139.52,1.74l-4.31,25.14h34.35l4.31-25.14h2.74l-10.04,58.08h-2.66l5.23-30.37h-34.35l-5.23,30.37h-2.66L136.86,1.74h2.66Z"/><path class="m" d="M214.86,38.75h-25.47l-11.87,21.08h-3.07L208.72,0l13.61,59.83h-2.9l-4.56-21.08Zm-24.06-2.49h23.57l-6.64-29.96-16.93,29.96Z"/><path class="m" d="M284.72,1.74l-10.29,59.83L240.91,7.38l-9.04,52.44h-2.74L239.42,0l33.52,54.52L282.07,1.74h2.66Z"/></g></g></g></svg>