<?xml version="1.0" encoding="UTF-8"?><svg xmlns="http://www.w3.org/2000/svg" viewBox="0 0 141.79 228.46"><defs><style>.h{stroke-width:2.9px;}.h,.i,.j{fill:none;stroke-miterlimit:10;}.h,.j{stroke:#131b41;}.i{stroke:#f5b769;stroke-width:10px;}.j{stroke-width:6.76px;}.k{fill:#f5b769;}</style></defs><g id="a"/><g id="b"><g id="c"><ellipse id="d" class="k" cx="70.9" cy="80.67" rx="70.9" ry="80.67"/><path id="e" class="j" d="M48.74,39.13s10-17.38,19.59-22.41c9.59-5.03,35.69,48.92,37.89,69.69,2.46,23.24-2.71,65.93-32.41,70.04h-8.77s-27.73-13.9-27.4-48.41"/><path id="f" class="h" d="M66.23,158.45l-15.61-37.06c-.1-.24-.13-.5-.06-.75,.57-2.35,3.82-14.72,7.79-11.54,4.38,3.51,6.79,8.42,5.59,12.62-.91,3.19-3.65,.74-4.92-.63-.44-.47-.51-1.04-.21-1.56,1.71-2.88,7.75-12.6,10.6-10.96,3.34,1.92,10.24,8.23,6.41,12.44-.04,.04-.08,.08-.11,.12-1.7,1.81-6.08,.62-5.22-1.41,1.84-4.36,5.7-12.37,8.81-11.34,3.83,1.27,6.08,8.79,6.49,10.27,.05,.17,.05,.33,.03,.5l-6.52,39.28"/><path id="g" class="i" d="M98.56,206.66c0,9.28-7.08,16.8-15.82,16.8h-23.69c-8.74,0-15.82-7.52-15.82-16.8v-25.17c0-9.28,7.08-16.8,15.82-16.8h23.69c8.74,0,15.82,7.52,15.82,16.8v2.63"/></g></g></svg>